ffmpeg version 4.2.4-1ubuntu0.1 Copyright (c) 2000-2020 the FFmpeg developers
  built with gcc 9 (Ubuntu 9.3.0-10ubuntu2)
  configuration: --prefix=/usr --extra-version=1ubuntu0.1 --toolchain=hardened --libdir=/usr/lib/x86_64-linux-gnu --incdir=/usr/include/x86_64-linux-gnu --arch=amd64 --enable-gpl --disable-stripping --enable-avresample --disable-filter=resample --enable-avisynth --enable-gnutls --enable-ladspa --enable-libaom --enable-libass --enable-libbluray --enable-libbs2b --enable-libcaca --enable-libcdio --enable-libcodec2 --enable-libflite --enable-libfontconfig --enable-libfreetype --enable-libfribidi --enable-libgme --enable-libgsm --enable-libjack --enable-libmp3lame --enable-libmysofa --enable-libopenjpeg --enable-libopenmpt --enable-libopus --enable-libpulse --enable-librsvg --enable-librubberband --enable-libshine --enable-libsnappy --enable-libsoxr --enable-libspeex --enable-libssh --enable-libtheora --enable-libtwolame --enable-libvidstab --enable-libvorbis --enable-libvpx --enable-libwavpack --enable-libwebp --enable-libx265 --enable-libxml2 --enable-libxvid --enable-libzmq --enable-libzvbi --enable-lv2 --enable-omx --enable-openal --enable-opencl --enable-opengl --enable-sdl2 --enable-libdc1394 --enable-libdrm --enable-libiec61883 --enable-nvenc --enable-chromaprint --enable-frei0r --enable-libx264 --enable-shared
  libavutil      56. 31.100 / 56. 31.100
  libavcodec     58. 54.100 / 58. 54.100
  libavformat    58. 29.100 / 58. 29.100
  libavdevice    58.  8.100 / 58.  8.100
  libavfilter     7. 57.100 /  7. 57.100
  libavresample   4.  0.  0 /  4.  0.  0
  libswscale      5.  5.100 /  5.  5.100
  libswresample   3.  5.100 /  3.  5.100
  libpostproc    55.  5.100 / 55.  5.100
Input #0, image2, from './Cubo/Cubo%02d.png':
  Duration: 00:00:04.00, start: 0.000000, bitrate: N/A
    Stream #0:0: Video: png, rgb24(pc), 320x240, 25 fps, 25 tbr, 25 tbn, 25 tbc
Stream mapping:
  Stream #0:0 -> #0:0 (png (native) -> h264 (libx264))
Press [q] to stop, [?] for help
[libx264 @ 0x555fba345840] using cpu capabilities: MMX2 SSE2Fast SSSE3 SSE4.2 AVX FMA3 BMI2 AVX2
[libx264 @ 0x555fba345840] profile High 4:4:4 Predictive, level 1.3, 4:4:4 8-bit
Output #0, avi, to 'cmp-functs/cub_h264_sse.avi':
  Metadata:
    ISFT            : Lavf58.29.100
    Stream #0:0: Video: h264 (libx264) (H264 / 0x34363248), yuv444p, 320x240, q=-1--1, 25 fps, 25 tbn, 25 tbc
    Metadata:
      encoder         : Lavc58.54.100 libx264
    Side data:
      cpb: bitrate max/min/avg: 0/0/0 buffer size: 0 vbv_delay: -1
frame=  100 fps=0.0 q=-1.0 Lsize=     389kB time=00:00:03.92 bitrate= 812.2kbits/s speed=18.9x    
video:381kB audio:0kB subtitle:0kB other streams:0kB global headers:0kB muxing overhead: 2.086652%
bench: utime=0.850s stime=0.022s rtime=0.208s
bench: maxrss=90848kB
[libx264 @ 0x555fba345840] frame I:5     Avg QP:25.33  size:  6144
[libx264 @ 0x555fba345840] frame P:24    Avg QP:28.08  size:  4660
[libx264 @ 0x555fba345840] frame B:71    Avg QP:29.54  size:  3483
[libx264 @ 0x555fba345840] consecutive B-frames:  5.0%  0.0%  3.0% 92.0%
[libx264 @ 0x555fba345840] mb I  I16..4: 20.1%  0.0% 79.9%
[libx264 @ 0x555fba345840] mb P  I16..4: 14.2%  0.0% 63.1%  P16..4: 10.2%  6.7%  3.1%  0.0%  0.0%    skip: 2.7%
[libx264 @ 0x555fba345840] mb B  I16..4:  2.8%  0.0% 23.6%  B16..8: 28.3% 21.9%  7.6%  direct: 5.4%  skip:10.5%  L0:41.4% L1:41.4% BI:17.2%
[libx264 @ 0x555fba345840] coded y,u,v intra: 74.7% 59.3% 63.0% inter: 34.8% 11.6% 14.6%
[libx264 @ 0x555fba345840] i16 v,h,dc,p: 19% 33% 19% 29%
[libx264 @ 0x555fba345840] i4 v,h,dc,ddl,ddr,vr,hd,vl,hu: 25% 12% 19%  9%  6%  8%  5% 12%  4%
[libx264 @ 0x555fba345840] Weighted P-Frames: Y:0.0% UV:0.0%
[libx264 @ 0x555fba345840] ref P L0: 58.8%  7.0% 21.0% 13.2%
[libx264 @ 0x555fba345840] ref B L0: 90.0%  7.5%  2.5%
[libx264 @ 0x555fba345840] ref B L1: 94.9%  5.1%
[libx264 @ 0x555fba345840] kb/s:779.72
